<?xml version="1.0" encoding="UTF-8"?>
<svg id="tEXTO" xmlns="http://www.w3.org/2000/svg" viewBox="0 0 2636.22 820.86">
  <defs>
    <style>
      .cls-1 {
        fill-rule: evenodd;
      }

      .cls-1, .cls-2 {
        fill: #009efb;
      }
    </style>
  </defs>
  <g>
    <path class="cls-2" d="M0,468.71v-97.19c0-86.01,40.42-169.44,189.22-169.44s189.22,83.43,189.22,169.44v97.19c0,86.01-40.42,169.44-189.22,169.44S0,554.72,0,468.71ZM254.59,472.15v-104.07c0-39.56-20.64-61.93-65.37-61.93s-65.37,22.36-65.37,61.93v104.07c0,39.56,20.64,61.93,65.37,61.93s65.37-22.36,65.37-61.93Z"/>
    <path class="cls-2" d="M713,629.55v-276.95c0-18.92-8.6-30.1-30.1-30.1s-63.65,15.48-90.31,30.1v276.95h-123.85V210.69h92.03l12.9,31.82c51.6-24.94,118.69-40.42,166.86-40.42,71.39,0,96.33,53.33,96.33,134.17v293.29h-123.85Z"/>
    <path class="cls-2" d="M1185.18,130.7c-17.2-3.44-35.26-5.16-49.88-5.16-39.56,0-42.14,17.2-42.14,44.72v49.02h93.75l-8.6,101.49h-85.15v308.77h-123.85v-308.77h-63.65v-101.49h63.65v-62.79c0-86.01,40.42-134.17,141.91-134.17,35.26,0,60.21,3.44,89.45,11.18l-15.48,97.19ZM1261.73,629.55V39.53l123.85-17.2v607.22h-123.85Z"/>
    <path class="cls-2" d="M1565.33,798.98l49.03-169.44h-39.56l-129.01-418.86h125.57l85.15,296.73,85.15-296.73h125.57l-131.59,418.86-53.32,169.44h-116.97Z"/>
  </g>
  <path class="cls-1" d="M2586.63,131.74l-22.01-5.9-49.4-118.4-27.77-7.44,14.23,110.4-70.8-16.9-15.84-38.85-25.3-6.78,6.28,43.66c-27.6-6.58-56.39-10.07-86.01-10.07-204.18,0-369.7,165.52-369.7,369.7s165.52,369.7,369.7,369.7c15.34,0,30.46-.95,45.31-2.77-5.67.26-11.37.41-17.11.41-199.77,0-361.71-161.94-361.71-361.71s161.94-361.71,361.71-361.71c18.26,0,36.2,1.38,53.74,4l1.97,1.04-27.58,35.07,25.3,6.78,33.14-25.73,69.77,20.76-40.84,53.52c-38.29-18.66-81.31-29.14-126.77-29.14-160.03,0-289.77,129.73-289.77,289.77s129.73,289.77,289.77,289.77,289.77-129.73,289.77-289.77c0-101.23-51.92-190.31-130.57-242.13l70.65-53.92,22.01,5.9c21.19,5.68,53.62,12.86,57.16-.37h0c3.54-13.23-28.13-23.22-49.32-28.9ZM2253.94,195.52c-21.46,27.88-39.51,58.51-53.48,91.31-18.68-8.88-36.27-19.69-52.55-32.12,29.9-27.26,66.04-47.79,106.04-59.19ZM2130.7,271.9c18.77,14.61,39.19,27.21,60.97,37.39-14.63,40.75-23.15,84.4-24.43,129.88h-105.81c2.86-64.35,28.59-122.76,69.28-167.27ZM2061.42,463.15h105.81c1.29,45.95,9.96,90.04,24.88,131.15-20.89,11-40.27,24.49-57.75,40.05-42.8-44.98-70-104.94-72.94-171.2ZM2151.72,651c15.03-13.19,31.55-24.72,49.29-34.28,13.9,32.34,31.78,62.55,52.99,90.08-38.33-10.91-73.12-30.23-102.27-55.81ZM2314.93,716.66c-7.91-.35-15.73-1.05-23.45-2.08-29.06-32.49-52.23-69-68.95-108.24,28.57-12.22,59.72-19.56,92.4-21.01v131.33ZM2314.93,561.34c-35.77,1.46-69.87,9.38-101.15,22.66-13.65-38.41-21.32-79.07-22.55-120.84h123.7v98.19ZM2314.93,439.17h-123.7c1.23-41.67,8.87-82.24,22.46-120.57,31.65,11.99,65.71,19.1,101.24,20.41v100.17ZM2314.93,315.01c-32.44-1.3-63.54-7.85-92.49-18.82,16.74-39.32,39.95-75.91,69.07-108.46,7.71-1.03,15.52-1.72,23.42-2.07v129.35ZM2338.92,185.66c7.9.35,15.71,1.05,23.42,2.07,29.12,32.55,52.34,69.14,69.07,108.46-28.95,10.97-60.06,17.51-92.49,18.82v-129.35ZM2338.92,339c35.54-1.31,69.59-8.42,101.24-20.41,13.59,38.33,21.23,78.9,22.46,120.57h-123.7v-100.17ZM2338.92,463.15h123.7c-1.24,41.77-8.9,82.43-22.55,120.84-31.28-13.28-65.38-21.2-101.15-22.66v-98.19ZM2338.92,716.66v-131.33c32.68,1.45,63.83,8.8,92.4,21.01-16.73,39.24-39.89,75.75-68.95,108.24-7.72,1.03-15.54,1.72-23.45,2.08ZM2399.86,706.81c21.2-27.53,39.08-57.74,52.98-90.08,17.74,9.56,34.26,21.09,49.29,34.28-29.15,25.58-63.94,44.89-102.27,55.81ZM2519.49,634.35c-17.48-15.56-36.86-29.05-57.75-40.05,14.91-41.11,23.59-85.2,24.88-131.15h105.81c-2.94,66.27-30.14,126.23-72.94,171.2ZM2592.43,439.17h-105.81c-1.28-45.48-9.8-89.13-24.43-129.88,21.78-10.18,42.2-22.78,60.97-37.39,40.69,44.51,66.42,102.91,69.28,167.27ZM2505.94,254.71c-16.29,12.43-33.87,23.25-52.55,32.12-13.97-32.8-32.02-63.43-53.48-91.31,13.44,3.83,26.43,8.71,38.91,14.51l-11.81,15.47,27.77,7.44,11.02-8.41c14.33,8.8,27.77,18.9,40.13,30.17Z"/>
</svg>